<svg width="41" height="18" viewBox="0 0 41 18" fill="none" xmlns="http://www.w3.org/2000/svg">
<path fill-rule="evenodd" clip-rule="evenodd" d="M18.7631 13.88V8.98888H21.2875C22.3219 8.98888 23.195 8.64227 23.9067 7.95868L24.0776 7.78537C25.3777 6.37004 25.2923 4.1652 23.9067 2.85577C23.214 2.16255 22.2649 1.78705 21.2875 1.80631H17.2352V13.88H18.7631ZM18.7633 7.50606V3.28894H21.326C21.8765 3.28894 22.3986 3.50076 22.7877 3.88589C23.6135 4.69465 23.6325 6.04259 22.8352 6.88023C22.446 7.29424 21.8955 7.52532 21.326 7.50606H18.7633ZM31.2047 6.26409C30.5499 5.65751 29.6578 5.34941 28.5285 5.34941C27.0765 5.34941 25.9851 5.88859 25.2639 6.95731L26.6115 7.81421C27.105 7.08248 27.7788 6.71661 28.6329 6.71661C29.1738 6.71661 29.6958 6.9188 30.1038 7.28467C30.5024 7.63128 30.7302 8.13194 30.7302 8.66149V9.01773C30.1418 8.69037 29.4016 8.51707 28.4905 8.51707C27.4276 8.51707 26.5735 8.7674 25.9377 9.27769C25.3018 9.78798 24.9792 10.4619 24.9792 11.3188C24.9602 12.0987 25.2923 12.8401 25.8807 13.3408C26.4786 13.8799 27.2378 14.1495 28.1299 14.1495C29.1833 14.1495 30.0184 13.6777 30.6543 12.7342H30.7207V13.8799H32.1822V8.78665C32.1822 7.71793 31.8595 6.87066 31.2047 6.26409ZM27.0578 12.3587C26.7445 12.1276 26.5547 11.7521 26.5547 11.3478C26.5547 10.8952 26.7635 10.5197 27.1717 10.2213C27.5893 9.9228 28.1113 9.76875 28.7283 9.76875C29.5825 9.75912 30.247 9.95168 30.7215 10.3368C30.7215 10.9915 30.4653 11.5596 29.9622 12.041C29.5066 12.5031 28.8897 12.7631 28.2442 12.7631C27.8171 12.7727 27.3995 12.6283 27.0578 12.3587ZM35.4658 17.5097L40.5715 5.619H38.9107L36.5477 11.5499H36.5192L34.0992 5.619H32.4385L35.7885 13.3504L33.8904 17.5097H35.4658Z" fill="#3C4043"/>
<path d="M13.4882 7.92981C13.4882 7.45804 13.4502 6.98626 13.3743 6.52411H6.93048V9.1911H10.6221C10.4703 10.048 9.97682 10.8183 9.25557 11.2997V13.0327H11.4573C12.7479 11.8292 13.4882 10.048 13.4882 7.92981Z" fill="#4285F4"/>
<path d="M6.93077 14.708C8.77186 14.708 10.3282 14.0918 11.4576 13.0327L9.25586 11.2997C8.639 11.7233 7.85132 11.964 6.93077 11.964C5.14663 11.964 3.6377 10.7412 3.09676 9.10446H0.828613V10.8953C1.98641 13.2349 4.34946 14.708 6.93077 14.708Z" fill="#34A853"/>
<path d="M3.09701 9.10449C2.81226 8.24758 2.81226 7.31366 3.09701 6.44713V4.66592H0.828507C-0.149134 6.62043 -0.149134 8.93118 0.828507 10.8857L3.09701 9.10449Z" fill="#FBBC04"/>
<path d="M6.93078 3.58754C7.90826 3.56829 8.84778 3.94378 9.55006 4.62738L11.505 2.64399C10.2618 1.46936 8.62951 0.824272 6.93078 0.843528C4.34946 0.843528 1.98641 2.32626 0.828613 4.66589L3.09676 6.45672C3.6377 4.81031 5.14663 3.58754 6.93078 3.58754Z" fill="#EA4335"/>
</svg>
