<svg width="12" height="12" viewBox="0 0 12 12" fill="none" xmlns="http://www.w3.org/2000/svg">
<path d="M6 7.5C6.82843 7.5 7.5 6.82843 7.5 6C7.5 5.17157 6.82843 4.5 6 4.5C5.17157 4.5 4.5 5.17157 4.5 6C4.5 6.82843 5.17157 7.5 6 7.5Z" stroke="#B1B4BD" stroke-miterlimit="10" stroke-linecap="round" stroke-linejoin="round"/>
<path d="M1 6.44V5.56C1 5.04 1.425 4.61 1.95 4.61C2.855 4.61 3.225 3.97 2.77 3.185C2.51 2.735 2.665 2.15 3.12 1.89L3.985 1.395C4.38 1.16 4.89 1.3 5.125 1.695L5.18 1.79C5.63 2.575 6.37 2.575 6.825 1.79L6.88 1.695C7.115 1.3 7.625 1.16 8.02 1.395L8.885 1.89C9.34 2.15 9.495 2.735 9.235 3.185C8.78 3.97 9.15 4.61 10.055 4.61C10.575 4.61 11.005 5.035 11.005 5.56V6.44C11.005 6.96 10.58 7.39 10.055 7.39C9.15 7.39 8.78 8.03 9.235 8.815C9.495 9.27 9.34 9.85 8.885 10.11L8.02 10.605C7.625 10.84 7.115 10.7 6.88 10.305L6.825 10.21C6.375 9.425 5.635 9.425 5.18 10.21L5.125 10.305C4.89 10.7 4.38 10.84 3.985 10.605L3.12 10.11C2.665 9.85 2.51 9.265 2.77 8.815C3.225 8.03 2.855 7.39 1.95 7.39C1.425 7.39 1 6.96 1 6.44Z" stroke="#B1B4BD" stroke-miterlimit="10" stroke-linecap="round" stroke-linejoin="round"/>
</svg>
