<svg width="12" height="12" viewBox="0 0 12 12" fill="none" xmlns="http://www.w3.org/2000/svg">
<path d="M3.14 11C4.00157 11 4.7 10.3016 4.7 9.44C4.7 8.57844 4.00157 7.88 3.14 7.88C2.27844 7.88 1.58 8.57844 1.58 9.44C1.58 10.3016 2.27844 11 3.14 11Z" stroke="#B1B4BD" stroke-linecap="round" stroke-linejoin="round"/>
<path d="M10.42 8.4V2.3C10.42 1 9.605 0.820001 8.78 1.045L5.66 1.895C5.09 2.05 4.7 2.5 4.7 3.15V4.235V4.965V9.435" stroke="#B1B4BD" stroke-linecap="round" stroke-linejoin="round"/>
<path d="M8.86 9.96C9.72157 9.96 10.42 9.26156 10.42 8.4C10.42 7.53843 9.72157 6.84 8.86 6.84C7.99844 6.84 7.3 7.53843 7.3 8.4C7.3 9.26156 7.99844 9.96 8.86 9.96Z" stroke="#B1B4BD" stroke-linecap="round" stroke-linejoin="round"/>
<path d="M4.7 4.76L10.42 3.2" stroke="#B1B4BD" stroke-linecap="round" stroke-linejoin="round"/>
</svg>
