<svg width="42" height="18" viewBox="0 0 42 18" fill="none" xmlns="http://www.w3.org/2000/svg">
<path fill-rule="evenodd" clip-rule="evenodd" d="M22.4469 2.56987L19.5683 3.20581V0.803365L22.4469 0.179199V2.56987ZM28.4332 3.90064C27.3093 3.90064 26.5868 4.44237 26.1854 4.81922L26.0363 4.08906H23.5133V17.8207L26.3803 17.1966L26.3918 13.8638C26.8047 14.17 27.4125 14.6057 28.4217 14.6057C30.4745 14.6057 32.3438 12.9098 32.3438 9.17661C32.3324 5.76136 30.4401 3.90064 28.4332 3.90064ZM27.745 12.0148C27.0684 12.0148 26.667 11.7675 26.3918 11.4613L26.3803 7.09212C26.6785 6.7506 27.0914 6.51506 27.745 6.51506C28.7887 6.51506 29.5111 7.71629 29.5111 9.25904C29.5111 10.8371 28.8001 12.0148 27.745 12.0148ZM41.381 9.29437C41.381 6.27953 39.9589 3.90064 37.2409 3.90064C34.5115 3.90064 32.86 6.27953 32.86 9.27082C32.86 12.8156 34.8096 14.6057 37.6079 14.6057C38.9726 14.6057 40.0048 14.2877 40.7846 13.8402V11.4848C40.0048 11.8853 39.1102 12.1326 37.9749 12.1326C36.8625 12.1326 35.8762 11.7322 35.75 10.3425H41.358C41.358 10.2776 41.3621 10.1304 41.3669 9.96063L41.3669 9.96025C41.3734 9.72942 41.381 9.45719 41.381 9.29437ZM35.7156 8.17559C35.7156 6.84482 36.5069 6.29132 37.2294 6.29132C37.9289 6.29132 38.6744 6.84482 38.6744 8.17559H35.7156ZM19.5682 4.10086H22.4467V14.4055H19.5682V4.10086ZM16.3 4.10085L16.4835 4.97233C17.1601 3.70044 18.5019 3.95953 18.8689 4.10085V6.8095C18.5134 6.67995 17.3665 6.51508 16.6899 7.42189V14.4055H13.8228V4.10085H16.3ZM10.7492 1.54528L7.95089 2.15767L7.93942 11.5908C7.93942 13.3338 9.2124 14.6174 10.9097 14.6174C11.8501 14.6174 12.5382 14.4408 12.9167 14.2288V11.8381C12.5497 11.9912 10.7377 12.533 10.7377 10.79V6.60928H12.9167V4.10083H10.7377L10.7492 1.54528ZM3.97153 6.45621C3.36371 6.45621 2.99673 6.63286 2.99673 7.09215C2.99673 7.59363 3.62832 7.81422 4.41187 8.08789C5.68925 8.53405 7.37051 9.12126 7.37762 11.2964C7.37762 13.4045 5.73765 14.6175 3.35225 14.6175C2.36597 14.6175 1.28795 14.4173 0.221397 13.9462V11.1434C1.18473 11.6851 2.40038 12.0855 3.35225 12.0855C3.99447 12.0855 4.4532 11.9088 4.4532 11.3671C4.4532 10.8116 3.76855 10.5577 2.94199 10.2512C1.68318 9.78439 0.0952454 9.19552 0.0952454 7.23348C0.0952454 5.14899 1.64347 3.90066 3.97153 3.90066C4.9234 3.90066 5.86381 4.05376 6.81568 4.44239V7.20992C5.94408 6.72708 4.84313 6.45621 3.97153 6.45621Z" fill="#6461FC"/>
</svg>
